<?xml version="1.0" standalone="no"?>
<svg width="160" height="215" version="1.1" xmlns="http://www.w3.org/2000/svg">
 
<rect x="30" y="0" width="100" height="215" stroke="black" fill="yellow" stroke-width="2"/>

<line x1="0" x2="30" y1="5"  y2="5"  stroke="black" fill="black" stroke-width="2"/>
<line x1="0" x2="30" y1="30" y2="30" stroke="black" fill="black" stroke-width="2"/>
<line x1="0" x2="30" y1="60" y2="60" stroke="black" fill="black" stroke-width="2"/>
<line x1="0" x2="30" y1="90" y2="90" stroke="black" fill="black" stroke-width="2"/>
<line x1="0" x2="30" y1="120" y2="120" stroke="black" fill="black" stroke-width="2"/>
<line x1="0" x2="30" y1="150" y2="150" stroke="black" fill="black" stroke-width="2"/>
<line x1="0" x2="30" y1="180" y2="180" stroke="black" fill="black" stroke-width="2"/>
<line x1="0" x2="30" y1="210" y2="210" stroke="black" fill="black" stroke-width="2"/>
  
<line x1="130" x2="160" y1="5" y2="5"   stroke="black" fill="black" stroke-width="2"/>
<line x1="130" x2="160" y1="30" y2="30" stroke="black" fill="black" stroke-width="2"/>
<line x1="130" x2="160" y1="60" y2="60" stroke="black" fill="black" stroke-width="2"/>
<line x1="130" x2="160" y1="90" y2="90" stroke="black" fill="black" stroke-width="2"/>
<line x1="130" x2="160" y1="120" y2="120" stroke="black" fill="black" stroke-width="2"/>
<line x1="130" x2="160" y1="150" y2="150" stroke="black" fill="black" stroke-width="2"/>
<line x1="130" x2="160" y1="180" y2="180" stroke="black" fill="black" stroke-width="2"/>
<line x1="130" x2="160" y1="210" y2="210" stroke="black" fill="black" stroke-width="2"/>

  
<text x="32" y="15">1</text>
<text x="32" y="35">2</text>
<text x="32" y="64">3</text>
<text x="32" y="95">4</text>
<text x="32" y="125">5</text>
<text x="32" y="155">6</text>
<text x="32" y="185">7</text>
<text x="32" y="212">8</text>

<text x="110" y="15">16</text>  
<text x="110" y="35">15</text>
<text x="110" y="64">14</text>
<text x="110" y="95">13</text>
<text x="110" y="125">12</text>
<text x="110" y="155">11</text>
<text x="110" y="185">10</text>
<text x="110" y="212">9</text>
<text x="45" y="75">IC 16pin</text>

 
</svg>